<svg width="20" height="21" viewBox="0 0 20 21" fill="none" xmlns="http://www.w3.org/2000/svg">
<path fill-rule="evenodd" clip-rule="evenodd" d="M9.875 9.25C10.2892 9.25 10.625 9.58579 10.625 10V16C10.625 16.4142 10.2892 16.75 9.875 16.75C9.46079 16.75 9.125 16.4142 9.125 16V10C9.125 9.58579 9.46079 9.25 9.875 9.25Z" fill="#89CE64"/>
<path fill-rule="evenodd" clip-rule="evenodd" d="M9.875 4.25C10.2892 4.25 10.625 4.58579 10.625 5V8C10.625 8.41421 10.2892 8.75 9.875 8.75C9.46079 8.75 9.125 8.41421 9.125 8V5C9.125 4.58579 9.46079 4.25 9.875 4.25Z" fill="#89CE64"/>
<path fill-rule="evenodd" clip-rule="evenodd" d="M14.375 14.25C14.7892 14.25 15.125 14.5858 15.125 15V16C15.125 16.4142 14.7892 16.75 14.375 16.75C13.9608 16.75 13.625 16.4142 13.625 16V15C13.625 14.5858 13.9608 14.25 14.375 14.25Z" fill="#89CE64"/>
<path fill-rule="evenodd" clip-rule="evenodd" d="M14.375 4.25C14.7892 4.25 15.125 4.58579 15.125 5V13C15.125 13.4142 14.7892 13.75 14.375 13.75C13.9608 13.75 13.625 13.4142 13.625 13V5C13.625 4.58579 13.9608 4.25 14.375 4.25Z" fill="#89CE64"/>
<path fill-rule="evenodd" clip-rule="evenodd" d="M12.125 13C12.125 12.5858 12.4608 12.25 12.875 12.25H15.875C16.2892 12.25 16.625 12.5858 16.625 13C16.625 13.4142 16.2892 13.75 15.875 13.75H12.875C12.4608 13.75 12.125 13.4142 12.125 13Z" fill="#89CE64"/>
<path fill-rule="evenodd" clip-rule="evenodd" d="M5.375 12.25C5.78921 12.25 6.125 12.5858 6.125 13V16C6.125 16.4142 5.78921 16.75 5.375 16.75C4.96079 16.75 4.625 16.4142 4.625 16V13C4.625 12.5858 4.96079 12.25 5.375 12.25Z" fill="#89CE64"/>
<path fill-rule="evenodd" clip-rule="evenodd" d="M5.375 4.25C5.78921 4.25 6.125 4.58579 6.125 5V11C6.125 11.4142 5.78921 11.75 5.375 11.75C4.96079 11.75 4.625 11.4142 4.625 11V5C4.625 4.58579 4.96079 4.25 5.375 4.25Z" fill="#89CE64"/>
<path fill-rule="evenodd" clip-rule="evenodd" d="M3.125 11C3.125 10.5858 3.46079 10.25 3.875 10.25H6.875C7.28921 10.25 7.625 10.5858 7.625 11C7.625 11.4142 7.28921 11.75 6.875 11.75H3.875C3.46079 11.75 3.125 11.4142 3.125 11Z" fill="#89CE64"/>
<path fill-rule="evenodd" clip-rule="evenodd" d="M7.625 8C7.625 7.58579 7.96079 7.25 8.375 7.25H11.375C11.7892 7.25 12.125 7.58579 12.125 8C12.125 8.41421 11.7892 8.75 11.375 8.75H8.375C7.96079 8.75 7.625 8.41421 7.625 8Z" fill="#89CE64"/>
</svg>
