<svg width="414" height="414" viewBox="0 0 414 414" fill="none" xmlns="http://www.w3.org/2000/svg">
<path d="M413.5 214C413.5 215.642 413.48 217.279 413.441 218.911L413.941 218.923C413.861 222.212 413.702 225.481 413.466 228.728L412.967 228.692C412.729 231.963 412.412 235.212 412.018 238.438L412.515 238.498C412.116 241.76 411.639 244.998 411.086 248.21L410.593 248.125C410.036 251.354 409.402 254.557 408.692 257.731L409.18 257.84C408.464 261.044 407.67 264.22 406.802 267.364L406.32 267.231C405.448 270.387 404.501 273.511 403.48 276.602L403.955 276.759C402.926 279.875 401.823 282.956 400.647 286.002L400.181 285.822C399.003 288.874 397.752 291.89 396.43 294.867L396.887 295.07C395.556 298.067 394.155 301.025 392.683 303.942L392.237 303.717C390.765 306.636 389.223 309.514 387.613 312.349L388.048 312.596C386.43 315.446 384.745 318.252 382.993 321.012L382.571 320.744C380.82 323.503 379.003 326.216 377.123 328.881L377.532 329.17C375.643 331.846 373.691 334.473 371.677 337.05L371.283 336.743C369.272 339.316 367.199 341.839 365.067 344.309L365.445 344.636C363.306 347.114 361.107 349.539 358.85 351.908L358.488 351.563C356.236 353.927 353.927 356.236 351.563 358.488L351.908 358.85C349.539 361.107 347.114 363.306 344.636 365.445L344.309 365.067C341.839 367.199 339.316 369.272 336.743 371.283L337.051 371.677C334.473 373.691 331.846 375.643 329.17 377.532L328.881 377.123C326.216 379.003 323.503 380.82 320.744 382.571L321.012 382.993C318.252 384.745 315.446 386.43 312.596 388.048L312.349 387.613C309.514 389.223 306.636 390.765 303.717 392.237L303.942 392.683C301.025 394.155 298.067 395.556 295.07 396.887L294.867 396.43C291.89 397.752 288.874 399.003 285.822 400.181L286.002 400.647C282.956 401.823 279.875 402.926 276.759 403.955L276.602 403.48C273.511 404.501 270.387 405.448 267.231 406.32L267.364 406.802C264.22 407.67 261.044 408.464 257.84 409.18L257.731 408.692C254.557 409.402 251.354 410.036 248.125 410.593L248.21 411.086C244.998 411.639 241.76 412.116 238.498 412.515L238.437 412.018C235.212 412.412 231.963 412.729 228.692 412.967L228.728 413.466C225.481 413.702 222.212 413.861 218.923 413.941L218.911 413.441C217.279 413.48 215.642 413.5 214 413.5H209.15V414H199.45V413.5H189.75V414H180.05V413.5H170.35V414H160.65V413.5H150.95V414H141.25V413.5H131.55V414H121.85V413.5H112.15V414H102.45V413.5H92.75V414H83.05V413.5H73.35V414H63.65V413.5H53.95V414H44.25V413.5H34.55V414H24.8501V413.5H20C18.6971 413.5 17.4244 413.372 16.1938 413.129L16.0968 413.619C13.4729 413.1 11.0335 412.068 8.8877 410.631L9.16586 410.216C7.03914 408.792 5.20798 406.961 3.78418 404.834L3.3687 405.112C1.9321 402.966 0.899768 400.527 0.380682 397.903L0.871176 397.806C0.627721 396.576 0.5 395.303 0.5 394L0.5 389.15H0L0 379.45H0.5L0.5 369.75H0L0 360.05H0.5L0.5 350.35H0L0 340.65H0.5L0.5 330.95H0L0 321.25H0.5L0.5 311.55H0L0 301.85H0.5L0.5 292.15H0L0 282.45H0.5L0.5 272.75H0L0 263.05H0.5L0.5 253.35H0L0 243.65H0.5L0.5 233.95H0L0 224.25H0.5L0.5 214.55H0L0 204.85H0.5L0.5 200C0.5 198.358 0.519832 196.721 0.559269 195.089L0.0594151 195.077C0.138866 191.788 0.297693 188.519 0.534054 185.272L1.03273 185.308C1.27083 182.037 1.58778 178.788 1.98171 175.562L1.4854 175.502C1.88383 172.24 2.36079 169.002 2.91436 165.79L3.40709 165.875C3.96365 162.646 4.59784 159.443 5.30766 156.269L4.81971 156.16C5.53634 152.956 6.32986 149.78 7.19824 146.636L7.6802 146.769C8.55176 143.613 9.49892 140.489 10.5196 137.398L10.0448 137.241C11.0736 134.125 12.1769 131.044 13.3526 127.998L13.8191 128.178C14.9972 125.126 16.2483 122.11 17.5701 119.133L17.1131 118.93C18.4435 115.933 19.8454 112.975 21.3166 110.058L21.763 110.283C23.2354 107.364 24.7773 104.486 26.3867 101.651L25.9519 101.404C27.5696 98.5543 29.2554 95.7483 31.0068 92.9882L31.429 93.256C33.1798 90.4969 34.9966 87.7837 36.8769 85.1186L36.4684 84.8303C38.3565 82.1542 40.3087 79.5266 42.3227 76.9495L42.7166 77.2574C44.7278 74.6839 46.8009 72.1609 48.9334 69.6909L48.555 69.3641C50.6943 66.8863 52.8934 64.4615 55.15 62.0919L55.5121 62.4368C57.7636 60.0726 60.0726 57.7636 62.4368 55.5121L62.0919 55.15C64.4614 52.8934 66.8862 50.6943 69.3641 48.555L69.6909 48.9334C72.1609 46.8009 74.6838 44.7278 77.2574 42.7166L76.9495 42.3227C79.5265 40.3087 82.1542 38.3565 84.8303 36.4684L85.1186 36.877C87.7837 34.9966 90.4969 33.1798 93.256 31.429L92.9882 31.0068C95.7483 29.2553 98.5543 27.5696 101.404 25.9519L101.651 26.3867C104.486 24.7773 107.364 23.2354 110.283 21.763L110.058 21.3166C112.975 19.8454 115.933 18.4435 118.93 17.1131L119.133 17.5701C122.11 16.2483 125.126 14.9972 128.178 13.8191L127.998 13.3526C131.044 12.1769 134.125 11.0736 137.241 10.0448L137.398 10.5196C140.489 9.4989 143.613 8.55176 146.769 7.68018L146.636 7.19824C149.78 6.32986 152.956 5.53632 156.16 4.8197L156.269 5.30765C159.443 4.59784 162.646 3.96365 165.875 3.40707L165.79 2.91434C169.002 2.36078 172.24 1.88379 175.502 1.48538L175.563 1.98172C178.788 1.58777 182.037 1.27081 185.308 1.03271L185.272 0.534058C188.519 0.297699 191.788 0.138855 195.077 0.0594177L195.089 0.559265C196.721 0.519836 198.358 0.5 200 0.5H204.85V0H214.55V0.5H224.25V0H233.95V0.5H243.65V0H253.35V0.5H263.05V0H272.75V0.5H282.45V0H292.15V0.5H301.85V0H311.55V0.5H321.25V0H330.95V0.5H340.65V0H350.35V0.5H360.05V0H369.75V0.5H379.45V0H389.15V0.5H394C395.303 0.5 396.576 0.627716 397.806 0.871185L397.903 0.380676C400.527 0.89975 402.966 1.93207 405.112 3.36868L404.834 3.78418C406.961 5.20798 408.792 7.03912 410.216 9.16583L410.631 8.8877C412.068 11.0335 413.1 13.4728 413.619 16.0967L413.129 16.1938C413.372 17.4244 413.5 18.6971 413.5 20V24.85H414V34.55H413.5V44.25H414V53.95H413.5V63.65H414V73.35H413.5V83.05H414V92.75H413.5V102.45H414V112.15H413.5V121.85H414V131.55H413.5V141.25H414V150.95H413.5V160.65H414V170.35H413.5V180.05H414V189.75H413.5V199.45H414V209.15H413.5V214Z" stroke="#91D36E" stroke-dasharray="10 10"/>
</svg>
