<svg width="1440" height="326" viewBox="0 0 1440 326" fill="none" xmlns="http://www.w3.org/2000/svg">
<path d="M-64.0004 165C-64.0004 165 151.369 80.7495 297 84C423.543 86.8245 496.475 109.275 622.501 97.4999C717.657 88.6091 763.281 46.226 857 27.4999C981.035 2.71613 1053.7 -3.35339 1180 3.49992C1345.74 12.4932 1594.5 97.4999 1594.5 97.4999L1579 326C1579 326 1467.06 295.131 1393.5 286.5C1301.19 275.668 1246.7 304.404 1155.5 286.5C1081 271.875 1048.86 222.623 973 219.5C908.394 216.84 875.757 248.787 811.5 256C746.495 263.297 709.209 261.169 644.001 256C563.322 249.604 520.917 217.896 440.001 219.5C359.084 221.104 292.018 191.474 196 185C59.1425 175.772 -155 198 -155 198L-269.533 142.066C-280.329 139.636 -286.059 137.238 -284 135L-269.533 142.066C-220.027 153.205 -64.0004 165 -64.0004 165Z" fill="url(#paint0_linear_101_249)"/>
<defs>
<linearGradient id="paint0_linear_101_249" x1="655.042" y1="0.873413" x2="655" y2="596" gradientUnits="userSpaceOnUse">
<stop stop-color="#89CE64"/>
<stop offset="1" stop-color="#89CE64" stop-opacity="0"/>
</linearGradient>
</defs>
</svg>
