<svg width="24" height="24" viewBox="0 0 24 24" fill="none" xmlns="http://www.w3.org/2000/svg">
<path d="M21.6023 9.78333C21.5189 9.52082 21.3581 9.28964 21.1409 9.12011C20.9238 8.95059 20.6606 8.85063 20.3856 8.83333L15.4356 8.49167L13.6023 3.86667C13.5022 3.612 13.328 3.39325 13.1021 3.23874C12.8763 3.08422 12.6093 3.00105 12.3356 3V3C12.062 3.00105 11.795 3.08422 11.5692 3.23874C11.3433 3.39325 11.1691 3.612 11.069 3.86667L9.20231 8.51667L4.28564 8.83333C4.01106 8.85175 3.74833 8.95213 3.53142 9.12149C3.31451 9.29086 3.15342 9.52141 3.06898 9.78333C2.98226 10.0493 2.97719 10.3351 3.05443 10.6039C3.13167 10.8728 3.28766 11.1123 3.50231 11.2917L7.28564 14.4917L6.16064 18.9167C6.08281 19.216 6.09681 19.5319 6.20084 19.8231C6.30487 20.1144 6.49412 20.3677 6.74398 20.55C6.9865 20.7241 7.27545 20.8218 7.57384 20.8307C7.87223 20.8396 8.1665 20.7593 8.41898 20.6L12.3273 18.125H12.344L16.5523 20.7833C16.7682 20.9236 17.0199 20.9988 17.2773 21C17.4875 20.9983 17.6945 20.9485 17.8825 20.8543C18.0704 20.7602 18.2343 20.6242 18.3614 20.4568C18.4886 20.2894 18.5757 20.095 18.616 19.8887C18.6563 19.6824 18.6488 19.4696 18.594 19.2667L17.4023 14.425L21.169 11.2917C21.3836 11.1123 21.5396 10.8728 21.6169 10.6039C21.6941 10.3351 21.689 10.0493 21.6023 9.78333Z" fill="#FFE600"/>
</svg>
